<svg width="1920" height="1080" viewBox="0 0 1920 1080" fill="none" xmlns="http://www.w3.org/2000/svg" xmlns:xlink="http://www.w3.org/1999/xlink">
<g xmlns="http://www.w3.org/2000/svg" clip-path="url(#clip0)">
<rect width="1920" height="1080" fill="#1C1919"/>
<path fill-rule="evenodd" clip-rule="evenodd" d="M2127 580C2127 994.214 1791.21 1330 1377 1330C962.786 1330 627 994.214 627 580C627 165.786 962.786 -170 1377 -170C1791.21 -170 2127 165.786 2127 580ZM1325 862C1471.36 862 1590 743.355 1590 597C1590 450.645 1471.36 332 1325 332C1178.64 332 1060 450.645 1060 597C1060 743.355 1178.64 862 1325 862ZM975.113 606C979.887 795.14 1134.71 947 1325 947C1518.3 947 1675 790.3 1675 597C1675 403.7 1518.3 247 1325 247C1219.1 247 1124.18 294.035 1060 368.354V26H974V606H975.113Z" fill="#406C80" fill-opacity="0.2"/>
</g>
</svg>
